# xmcd CD database file
#
# Track frame offsets:
#	150
#	12447
#	22263
#	31459
#	41676
#	51508
#	66853
#	79654
#	89092
#	102477
#	113167
#	124803
#	137660
#
# Disc length: 2015 seconds
#
# Revision: 0
# Processed by: cddbd v1.5.2PL0 Copyright (c) Steve Scherf et al.
# Submitted via: CDex 1.51
#
DISCID=bc07dd0d
DTITLE=Frank Sinatra - Ring-A-Ding Ding! CD1
DYEAR=2013
DGENRE=Jazz
TTITLE0=Ring-A-Ding
TTITLE1=Let's Fall In Love
TTITLE2=Be Careful, It's My Heart
TTITLE3=A Foggy Day
TTITLE4=A Fine Romance
TTITLE5=In The Still Of The Night
TTITLE6=The Coffee Song
TTITLE7=When I Take My Sugar To Tea
TTITLE8=Let's Face The Music And Dance
TTITLE9=You'd Be So Easy To Love
TTITLE10=You And The Night And The Music
TTITLE11=I've Got My Love To Keep Me Warm
TTITLE12=Zing! Went the Strings Of My Heart
EXTD=YEAR: 2013
EXTT0=
EXTT1=
EXTT2=
EXTT3=
EXTT4=
EXTT5=
EXTT6=
EXTT7=
EXTT8=
EXTT9=
EXTT10=
EXTT11=
EXTT12=
PLAYORDER=
